{
  "accessors": [
    {
      "bufferView": 2,
      "componentType": 5126,
      "count": 240,
      "max": [
        0.2023559957742691,
        0.202907994389534,
        0.20140600204467773
      ],
      "min": [
        -0.2015649974346161,
        -0.19997400045394897,
        -0.20159600675106049
      ],
      "type": "VEC3"
    },
    {
      "bufferView": 2,
      "byteOffset": 2880,
      "componentType": 5126,
      "count": 240,
      "max": [
        0.9999167919158936,
        0.9999996423721313,
        0.9999672174453735
      ],
      "min": [
        -0.9999604225158691,
        -0.9999996423721313,
        -0.9999654293060303
      ],
      "type": "VEC3"
    },
    {
      "bufferView": 1,
      "componentType": 5126,
      "count": 240,
      "max": [
        0.48791900277137756,
        0.49893298745155334
      ],
      "min": [
        0.486517995595932,
        0.49786698818206787
      ],
      "type": "VEC2"
    },
    {
      "bufferView": 0,
      "componentType": 5125,
      "count": 684,
      "type": "SCALAR"
    },
    {
      "bufferView": 2,
      "byteOffset": 5760,
      "componentType": 5126,
      "count": 10736,
      "max": [
        0.6020389795303345,
        0.60630202293396,
        0.6012110114097595
      ],
      "min": [
        -0.6046550273895264,
        -0.6057950258255005,
        -0.606456995010376
      ],
      "type": "VEC3"
    },
    {
      "bufferView": 2,
      "byteOffset": 134592,
      "componentType": 5126,
      "count": 10736,
      "max": [
        0.9999806880950928,
        0.9999768733978271,
        0.9999651908874512
      ],
      "min": [
        -0.999974250793457,
        -0.9999582767486572,
        -0.9993077516555786
      ],
      "type": "VEC3"
    },
    {
      "bufferView": 1,
      "byteOffset": 1920,
      "componentType": 5126,
      "count": 10736,
      "max": [
        0.8038380146026611,
        0.7974134683609009
      ],
      "min": [
        0.0,
        0.0
      ],
      "type": "VEC2"
    },
    {
      "bufferView": 0,
      "byteOffset": 2736,
      "componentType": 5125,
      "count": 42537,
      "type": "SCALAR"
    }
  ],
  "asset": {
    "extras": {
      "author": "ElUvitta (https://sketchfab.com/xddron814)",
      "license": "CC-BY-4.0 (http://creativecommons.org/licenses/by/4.0/)",
      "source": "https://sketchfab.com/3d-models/cubo-rubik-3x3-obj-e320eae6da6c41aba1879e9507032b9d",
      "title": "CUBO RUBIK 3X3 (OBJ)"
    },
    "generator": "Sketchfab-12.66.0",
    "version": "2.0"
  },
  "bufferViews": [
    {
      "buffer": 0,
      "byteLength": 172884,
      "name": "floatBufferViews",
      "target": 34963
    },
    {
      "buffer": 0,
      "byteLength": 87808,
      "byteOffset": 172884,
      "byteStride": 8,
      "name": "floatBufferViews",
      "target": 34962
    },
    {
      "buffer": 0,
      "byteLength": 263424,
      "byteOffset": 260692,
      "byteStride": 12,
      "name": "floatBufferViews",
      "target": 34962
    }
  ],
  "buffers": [
    {
      "byteLength": 524116,
      "uri": "scene.bin"
    }
  ],
  "images": [
    {
      "uri": "textures/TEXTURE_baseColor.jpeg"
    }
  ],
  "materials": [
    {
      "doubleSided": true,
      "name": "TEXTURE",
      "pbrMetallicRoughness": {
        "baseColorTexture": {
          "index": 0
        },
        "metallicFactor": 0.0
      }
    }
  ],
  "meshes": [
    {
      "name": "Object_0",
      "primitives": [
        {
          "attributes": {
            "NORMAL": 1,
            "POSITION": 0,
            "TEXCOORD_0": 2
          },
          "indices": 3,
          "material": 0,
          "mode": 4
        }
      ]
    },
    {
      "name": "Object_1",
      "primitives": [
        {
          "attributes": {
            "NORMAL": 5,
            "POSITION": 4,
            "TEXCOORD_0": 6
          },
          "indices": 7,
          "material": 0,
          "mode": 4
        }
      ]
    }
  ],
  "nodes": [
    {
      "children": [
        1
      ],
      "matrix": [
        0.6582382917404175,
        0.0,
        0.0,
        0.0,
        0.0,
        1.461582614360285e-16,
        -0.6582382917404175,
        0.0,
        0.0,
        0.6582382917404175,
        1.461582614360285e-16,
        0.0,
        0.0,
        0.0,
        0.0,
        1.0
      ],
      "name": "Sketchfab_model"
    },
    {
      "children": [
        2,
        3
      ],
      "name": "CUBO RUBIK 3X3 .obj.cleaner.materialmerger.gles"
    },
    {
      "mesh": 0,
      "name": "Object_2"
    },
    {
      "mesh": 1,
      "name": "Object_3"
    }
  ],
  "samplers": [
    {
      "magFilter": 9729,
      "minFilter": 9987,
      "wrapS": 10497,
      "wrapT": 10497
    }
  ],
  "scene": 0,
  "scenes": [
    {
      "name": "Sketchfab_Scene",
      "nodes": [
        0
      ]
    }
  ],
  "textures": [
    {
      "sampler": 0,
      "source": 0
    }
  ]
}
