<?xml version="1.0" standalone="no"?>
<!DOCTYPE svg PUBLIC "-//W3C//DTD SVG 20010904//EN"
 "http://www.w3.org/TR/2001/REC-SVG-20010904/DTD/svg10.dtd">
<svg version="1.0" xmlns="http://www.w3.org/2000/svg"
 width="820.000000pt" height="512.000000pt" viewBox="0 0 820.000000 512.000000"
 preserveAspectRatio="xMidYMid meet">

<g transform="translate(0.000000,512.000000) scale(0.100000,-0.100000)"
fill="#000000" stroke="none">
<path d="M4093 4488 c-24 -12 -16 1 -398 -613 -147 -236 -363 -583 -480 -770
-117 -187 -264 -423 -327 -525 -115 -185 -515 -827 -913 -1465 -117 -187 -215
-350 -219 -362 -8 -26 15 -77 41 -88 19 -8 1115 -19 2838 -29 545 -3 1162 -9
1372 -12 l382 -6 31 30 c16 17 30 39 30 50 0 11 -170 303 -378 649 -208 345
-604 1002 -879 1458 -275 457 -609 1012 -742 1235 -134 223 -256 417 -272 433
-31 29 -50 32 -86 15z m27 -437 c17 -79 30 -151 30 -162 0 -20 -51 -106 -785
-1304 -219 -357 -410 -670 -425 -695 -15 -25 -64 -106 -110 -180 -46 -74 -130
-213 -188 -308 -68 -111 -115 -178 -131 -187 -14 -7 -118 -68 -230 -134 -112
-67 -205 -120 -207 -119 -2 2 54 96 125 208 70 113 266 428 436 700 169 272
404 648 520 835 117 187 355 570 530 850 174 281 336 540 359 576 22 37 42 66
44 64 1 -1 16 -66 32 -144z m274 -231 c35 -58 222 -368 416 -690 325 -539 469
-778 1054 -1750 115 -190 197 -336 185 -324 -13 11 -244 225 -514 475 -269
250 -579 538 -690 640 -110 102 -205 192 -212 200 -6 8 -39 149 -72 314 -226
1109 -258 1279 -244 1260 8 -11 43 -67 77 -125z m-166 -293 c12 -62 22 -121
22 -131 0 -10 -100 -183 -221 -385 -273 -451 -469 -776 -677 -1121 l-159 -265
-169 -102 c-93 -56 -172 -103 -176 -103 -4 0 28 57 71 128 87 141 473 773 601
982 45 74 120 196 165 270 45 74 137 225 205 335 68 110 164 268 214 352 50
84 93 153 96 153 3 0 15 -51 28 -113z m102 -511 l23 -123 -258 -429 c-142
-236 -267 -441 -279 -457 -18 -24 -316 -210 -324 -202 -1 1 88 153 199 336
111 184 292 484 402 667 110 182 203 332 207 332 3 0 17 -56 30 -124z m104
-510 c14 -71 25 -130 24 -131 -18 -14 -343 -203 -346 -201 -1 2 62 109 140
239 79 130 146 233 149 229 3 -4 18 -65 33 -136z m217 -373 c58 -54 259 -242
448 -418 189 -176 354 -329 367 -340 120 -107 624 -581 624 -587 0 -5 -55 -6
-122 -3 -68 2 -501 7 -963 10 -2342 14 -2840 18 -2845 23 -3 2 0 6 5 8 6 2 64
36 130 75 549 327 1593 948 1985 1182 135 80 250 146 256 147 5 0 57 -44 115
-97z"/>
</g>
</svg>
