{
  "accessors": [
    {
      "bufferView": 2,
      "componentType": 5126,
      "count": 14542,
      "max": [
        0.4144900441169739,
        0.4144914746284485,
        0.4144926369190216
      ],
      "min": [
        -0.41449373960494995,
        -0.41449230909347534,
        -0.4144911468029022
      ],
      "type": "VEC3"
    },
    {
      "bufferView": 2,
      "byteOffset": 174504,
      "componentType": 5126,
      "count": 14542,
      "max": [
        1.0,
        1.0,
        1.0
      ],
      "min": [
        -1.0,
        -1.0,
        -1.0
      ],
      "type": "VEC3"
    },
    {
      "bufferView": 1,
      "componentType": 5126,
      "count": 14542,
      "max": [
        1.0,
        1.0
      ],
      "min": [
        0.0,
        0.0
      ],
      "type": "VEC2"
    },
    {
      "bufferView": 0,
      "componentType": 5125,
      "count": 57468,
      "type": "SCALAR"
    },
    {
      "bufferView": 2,
      "byteOffset": 349008,
      "componentType": 5126,
      "count": 775,
      "max": [
        0.38985392451286316,
        0.3898550868034363,
        0.4148215055465698
      ],
      "min": [
        -0.38985735177993774,
        -0.3898561894893646,
        0.41389551758766174
      ],
      "type": "VEC3"
    },
    {
      "bufferView": 2,
      "byteOffset": 358308,
      "componentType": 5126,
      "count": 775,
      "max": [
        0.970564603805542,
        0.9705697298049927,
        1.0
      ],
      "min": [
        -0.9705663323402405,
        -0.9705685973167419,
        0.19339843094348907
      ],
      "type": "VEC3"
    },
    {
      "bufferView": 1,
      "byteOffset": 116336,
      "componentType": 5126,
      "count": 775,
      "max": [
        0.8534179925918579,
        0.7284179329872131
      ],
      "min": [
        0.3965820074081421,
        0.021582042798399925
      ],
      "type": "VEC2"
    },
    {
      "bufferView": 0,
      "byteOffset": 229872,
      "componentType": 5125,
      "count": 2970,
      "type": "SCALAR"
    },
    {
      "bufferView": 2,
      "byteOffset": 367608,
      "componentType": 5126,
      "count": 781,
      "max": [
        0.38985392451286316,
        0.4148203432559967,
        0.3898565173149109
      ],
      "min": [
        -0.38985735177993774,
        0.413894385099411,
        -0.3898550271987915
      ],
      "type": "VEC3"
    },
    {
      "bufferView": 2,
      "byteOffset": 376980,
      "componentType": 5126,
      "count": 781,
      "max": [
        0.97056645154953,
        1.0,
        0.9705896377563477
      ],
      "min": [
        -0.9705683588981628,
        0.19329971075057983,
        -0.9705686569213867
      ],
      "type": "VEC3"
    },
    {
      "bufferView": 1,
      "byteOffset": 122536,
      "componentType": 5126,
      "count": 781,
      "max": [
        0.6034179329872131,
        0.7284179329872131
      ],
      "min": [
        0.3965820074081421,
        0.2715820372104645
      ],
      "type": "VEC2"
    },
    {
      "bufferView": 0,
      "byteOffset": 241752,
      "componentType": 5125,
      "count": 2970,
      "type": "SCALAR"
    },
    {
      "bufferView": 2,
      "byteOffset": 386352,
      "componentType": 5126,
      "count": 777,
      "max": [
        -0.4138966500759125,
        0.3898550868034363,
        0.3898565173149109
      ],
      "min": [
        -0.41482263803482056,
        -0.3898561894893646,
        -0.3898550271987915
      ],
      "type": "VEC3"
    },
    {
      "bufferView": 2,
      "byteOffset": 395676,
      "componentType": 5126,
      "count": 777,
      "max": [
        -0.19322960078716278,
        0.9705608487129211,
        0.9706071019172668
      ],
      "min": [
        -1.0,
        -0.9705694317817688,
        -0.9705709218978882
      ],
      "type": "VEC3"
    },
    {
      "bufferView": 1,
      "byteOffset": 128784,
      "componentType": 5126,
      "count": 777,
      "max": [
        0.8534179925918579,
        0.7284179329872131
      ],
      "min": [
        0.3965820074081421,
        0.021582042798399925
      ],
      "type": "VEC2"
    },
    {
      "bufferView": 0,
      "byteOffset": 253632,
      "componentType": 5125,
      "count": 2970,
      "type": "SCALAR"
    },
    {
      "bufferView": 2,
      "byteOffset": 405000,
      "componentType": 5126,
      "count": 775,
      "max": [
        0.38985392451286316,
        0.3898550868034363,
        -0.41389405727386475
      ],
      "min": [
        -0.38985762000083923,
        -0.3898561894893646,
        -0.41482001543045044
      ],
      "type": "VEC3"
    },
    {
      "bufferView": 2,
      "byteOffset": 414300,
      "componentType": 5126,
      "count": 775,
      "max": [
        0.9705599546432495,
        0.9705645442008972,
        -0.19342543184757233
      ],
      "min": [
        -0.9705650806427002,
        -0.9705621004104614,
        -1.0
      ],
      "type": "VEC3"
    },
    {
      "bufferView": 1,
      "byteOffset": 135000,
      "componentType": 5126,
      "count": 775,
      "max": [
        0.8534179925918579,
        0.7284179329872131
      ],
      "min": [
        0.3965820074081421,
        0.021582042798399925
      ],
      "type": "VEC2"
    },
    {
      "bufferView": 0,
      "byteOffset": 265512,
      "componentType": 5125,
      "count": 2970,
      "type": "SCALAR"
    },
    {
      "bufferView": 2,
      "byteOffset": 423600,
      "componentType": 5126,
      "count": 797,
      "max": [
        0.38985392451286316,
        -0.41389548778533936,
        0.389856219291687
      ],
      "min": [
        -0.38985735177993774,
        -0.41482147574424744,
        -0.3898550271987915
      ],
      "type": "VEC3"
    },
    {
      "bufferView": 2,
      "byteOffset": 433164,
      "componentType": 5126,
      "count": 797,
      "max": [
        0.9705706834793091,
        -0.1932956874370575,
        0.9705876111984253
      ],
      "min": [
        -0.9705708622932434,
        -1.0,
        -0.9705678820610046
      ],
      "type": "VEC3"
    },
    {
      "bufferView": 1,
      "byteOffset": 141200,
      "componentType": 5126,
      "count": 797,
      "max": [
        0.6034179329872131,
        0.7284179329872131
      ],
      "min": [
        0.3965820074081421,
        0.021582042798399925
      ],
      "type": "VEC2"
    },
    {
      "bufferView": 0,
      "byteOffset": 277392,
      "componentType": 5125,
      "count": 2970,
      "type": "SCALAR"
    },
    {
      "bufferView": 2,
      "byteOffset": 442728,
      "componentType": 5126,
      "count": 773,
      "max": [
        0.4148188829421997,
        0.3898550868034363,
        0.389856219291687
      ],
      "min": [
        0.413892924785614,
        -0.3898561894893646,
        -0.3898550271987915
      ],
      "type": "VEC3"
    },
    {
      "bufferView": 2,
      "byteOffset": 452004,
      "componentType": 5126,
      "count": 773,
      "max": [
        1.0,
        0.9705712199211121,
        0.9705812931060791
      ],
      "min": [
        0.19333583116531372,
        -0.9705760478973389,
        -0.9705724716186523
      ],
      "type": "VEC3"
    },
    {
      "bufferView": 1,
      "byteOffset": 147576,
      "componentType": 5126,
      "count": 773,
      "max": [
        0.8534179925918579,
        0.7284179329872131
      ],
      "min": [
        0.3965820074081421,
        0.021582042798399925
      ],
      "type": "VEC2"
    },
    {
      "bufferView": 0,
      "byteOffset": 289272,
      "componentType": 5125,
      "count": 2970,
      "type": "SCALAR"
    }
  ],
  "asset": {
    "extras": {
      "author": "sifrani (https://sketchfab.com/sifrani)",
      "license": "SKETCHFAB Standard (https://sketchfab.com/licenses)",
      "source": "https://sketchfab.com/3d-models/rubik-cube-503af669cc9b41b284e97e0aaaca4d6d",
      "title": "Rubik cube"
    },
    "generator": "Sketchfab-16.21.0",
    "version": "2.0"
  },
  "bufferViews": [
    {
      "buffer": 0,
      "byteLength": 301152,
      "name": "floatBufferViews",
      "target": 34963
    },
    {
      "buffer": 0,
      "byteLength": 153760,
      "byteOffset": 301152,
      "byteStride": 8,
      "name": "floatBufferViews",
      "target": 34962
    },
    {
      "buffer": 0,
      "byteLength": 461280,
      "byteOffset": 454912,
      "byteStride": 12,
      "name": "floatBufferViews",
      "target": 34962
    }
  ],
  "buffers": [
    {
      "byteLength": 916192,
      "uri": "scene.bin"
    }
  ],
  "materials": [
    {
      "doubleSided": true,
      "name": "Black",
      "pbrMetallicRoughness": {
        "baseColorFactor": [
          0.0,
          0.0,
          0.0,
          1.0
        ],
        "metallicFactor": 0.0
      }
    },
    {
      "doubleSided": true,
      "name": "material",
      "pbrMetallicRoughness": {
        "baseColorFactor": [
          0.0,
          0.00379534,
          1.0,
          1.0
        ],
        "metallicFactor": 0.0,
        "roughnessFactor": 0.9832486248356895
      }
    },
    {
      "doubleSided": true,
      "name": "material_2",
      "pbrMetallicRoughness": {
        "baseColorFactor": [
          1.0,
          0.926884,
          0.0,
          1.0
        ],
        "metallicFactor": 0.0,
        "roughnessFactor": 0.8042305856508599
      }
    },
    {
      "doubleSided": true,
      "name": "material_3",
      "pbrMetallicRoughness": {
        "baseColorFactor": [
          1.0,
          0.207217,
          0.0,
          1.0
        ],
        "metallicFactor": 0.0,
        "roughnessFactor": 0.919322309958702
      }
    },
    {
      "doubleSided": true,
      "name": "material_4",
      "pbrMetallicRoughness": {
        "baseColorFactor": [
          0.0192425,
          0.567862,
          0.0,
          1.0
        ],
        "metallicFactor": 0.0,
        "roughnessFactor": 0.9082707095607431
      }
    },
    {
      "doubleSided": true,
      "name": "material_5",
      "pbrMetallicRoughness": {
        "metallicFactor": 0.0,
        "roughnessFactor": 0.7763932022500211
      }
    },
    {
      "doubleSided": true,
      "name": "material_6",
      "pbrMetallicRoughness": {
        "baseColorFactor": [
          1.0,
          0.0,
          0.00783767,
          1.0
        ],
        "metallicFactor": 0.0,
        "roughnessFactor": 0.9523346602341789
      }
    }
  ],
  "meshes": [
    {
      "name": "Cube_Black_0",
      "primitives": [
        {
          "attributes": {
            "NORMAL": 1,
            "POSITION": 0,
            "TEXCOORD_0": 2
          },
          "indices": 3,
          "material": 0,
          "mode": 4
        }
      ]
    },
    {
      "name": "Cube_B_0",
      "primitives": [
        {
          "attributes": {
            "NORMAL": 5,
            "POSITION": 4,
            "TEXCOORD_0": 6
          },
          "indices": 7,
          "material": 1,
          "mode": 4
        }
      ]
    },
    {
      "name": "Cube_Y_0",
      "primitives": [
        {
          "attributes": {
            "NORMAL": 9,
            "POSITION": 8,
            "TEXCOORD_0": 10
          },
          "indices": 11,
          "material": 2,
          "mode": 4
        }
      ]
    },
    {
      "name": "Cube_O_0",
      "primitives": [
        {
          "attributes": {
            "NORMAL": 13,
            "POSITION": 12,
            "TEXCOORD_0": 14
          },
          "indices": 15,
          "material": 3,
          "mode": 4
        }
      ]
    },
    {
      "name": "Cube_G_0",
      "primitives": [
        {
          "attributes": {
            "NORMAL": 17,
            "POSITION": 16,
            "TEXCOORD_0": 18
          },
          "indices": 19,
          "material": 4,
          "mode": 4
        }
      ]
    },
    {
      "name": "Cube_W_0",
      "primitives": [
        {
          "attributes": {
            "NORMAL": 21,
            "POSITION": 20,
            "TEXCOORD_0": 22
          },
          "indices": 23,
          "material": 5,
          "mode": 4
        }
      ]
    },
    {
      "name": "Cube_R_0",
      "primitives": [
        {
          "attributes": {
            "NORMAL": 25,
            "POSITION": 24,
            "TEXCOORD_0": 26
          },
          "indices": 27,
          "material": 6,
          "mode": 4
        }
      ]
    }
  ],
  "nodes": [
    {
      "children": [
        1
      ],
      "matrix": [
        1.0,
        0.0,
        0.0,
        0.0,
        0.0,
        2.220446049250313e-16,
        -1.0,
        0.0,
        0.0,
        1.0,
        2.220446049250313e-16,
        0.0,
        0.0,
        0.0,
        0.0,
        1.0
      ],
      "name": "Sketchfab_model"
    },
    {
      "children": [
        2
      ],
      "matrix": [
        0.009999999776482582,
        0.0,
        0.0,
        0.0,
        0.0,
        0.0,
        0.009999999776482582,
        0.0,
        0.0,
        -0.009999999776482582,
        0.0,
        0.0,
        0.0,
        0.0,
        0.0,
        1.0
      ],
      "name": "099921c5c49d4a879b865df238305027.fbx"
    },
    {
      "children": [
        3
      ],
      "name": "RootNode"
    },
    {
      "children": [
        4,
        5,
        6,
        7,
        8,
        9,
        10
      ],
      "matrix": [
        -4.371139006309477e-06,
        -99.99999999999991,
        -1.1102230246251565e-14,
        0.0,
        -4.371139011860592e-06,
        1.9984014443252818e-13,
        -99.99999999999991,
        0.0,
        99.99999999999982,
        -4.371139011860592e-06,
        -4.371139006309477e-06,
        0.0,
        0.0,
        0.0,
        0.0,
        1.0
      ],
      "name": "Cube"
    },
    {
      "mesh": 0,
      "name": "Cube_Black_0"
    },
    {
      "mesh": 1,
      "name": "Cube_B_0"
    },
    {
      "mesh": 2,
      "name": "Cube_Y_0"
    },
    {
      "mesh": 3,
      "name": "Cube_O_0"
    },
    {
      "mesh": 4,
      "name": "Cube_G_0"
    },
    {
      "mesh": 5,
      "name": "Cube_W_0"
    },
    {
      "mesh": 6,
      "name": "Cube_R_0"
    }
  ],
  "scene": 0,
  "scenes": [
    {
      "name": "Sketchfab_Scene",
      "nodes": [
        0
      ]
    }
  ]
}
